<svg width="1200" height="800" xmlns="http://www.w3.org/2000/svg">
  <defs>
    <linearGradient id="grad1" x1="0%" y1="0%" x2="100%" y2="100%">
      <stop offset="0%" style="stop-color:#0B3C5D;stop-opacity:0.2" />
      <stop offset="100%" style="stop-color:#1D5B7C;stop-opacity:0.5" />
    </linearGradient>
  </defs>
  <rect width="100%" height="100%" fill="url(#grad1)" />
  <g fill="#ffffff" opacity="0.05">
    <circle cx="200" cy="150" r="80" />
    <circle cx="400" cy="450" r="60" />
    <circle cx="750" cy="250" r="100" />
    <circle cx="900" cy="550" r="70" />
    <circle cx="1100" cy="150" r="50" />
    <circle cx="100" cy="650" r="40" />
    <circle cx="600" cy="700" r="90" />
  </g>
  <g stroke="#ffffff" stroke-width="1" opacity="0.1">
    <line x1="200" y1="150" x2="400" y2="450" />
    <line x1="400" y1="450" x2="750" y2="250" />
    <line x1="750" y1="250" x2="900" y2="550" />
    <line x1="900" y1="550" x2="1100" y2="150" />
    <line x1="1100" y1="150" x2="600" y2="700" />
    <line x1="600" y1="700" x2="100" y2="650" />
    <line x1="100" y1="650" x2="200" y2="150" />
    <line x1="200" y1="150" x2="750" y2="250" />
    <line x1="400" y1="450" x2="900" y2="550" />
    <line x1="750" y1="250" x2="1100" y2="150" />
    <line x1="900" y1="550" x2="600" y2="700" />
    <line x1="1100" y1="150" x2="100" y2="650" />
  </g>
</svg>
